# xmcd CD database file
# Copyright (C) 1997 Ti Kan
# 
# Track frame offsets:
#     150
#     16390
#     33065
#     39615
#     54185
#     72665
#     98978
#     119598
#     145553
#     161903
#     182490
# 
# Disc length: 2762 seconds
# 
# Revision: 1
# Processed by: cddbd v1.4b41PL1 Copyright (c) Steve Scherf et al.
# Submitted via: DiscPlay 4.0.2
# 
DISCID=910ac80b
DTITLE=Gary Davis - The Rev. Gary davis at Newport
DYEAR=1900
DGENRE=
TTITLE0=Samson and Delilah (If I Had My Way)
TTITLE1=I Wont't Be Back No More
TTITLE2=Buck Dance
TTITLE3=Twelve Sticks
TTITLE4=Death Don't Have No Mercy
TTITLE5=You Got To Move
TTITLE6=Lovin' Spoonful
TTITLE7=She Wouldn't Say Quit
TTITLE8=I've Done all My Singin' For My Lord
TTITLE9=Twelve Gates to the City
TTITLE10=I Will Do My Last Singin' In This Land Somewhere
EXTD=
EXTT0=
EXTT1=
EXTT2=
EXTT3=
EXTT4=
EXTT5=
EXTT6=
EXTT7=
EXTT8=
EXTT9=
EXTT10=
PLAYORDER=
